# xmcd
#
# Track frame offsets:
#	150
#	14300
#	30871
#	42786
#	57599
#	72434
#	90194
#	100219
#	112812
#	124247
#	138210
#	150877
#	161153
#	174085
#	187598
#	208100
#	216710
#	228955
#	238858
#	256853
#	271998
#	287161
#	300681
#	312881
#
# Disc length: 4338 seconds
#
# Revision: 1
# Processed by: cddbd v1.5.1PL0 Copyright (c) Steve Scherf et al.
# Submitted via: EasyCDDAExtractor 5.0.6
#
DISCID=3d10f018
DTITLE=Offspring - The Best Of
DYEAR=2002
DGENRE=Punk Rock
TTITLE0=Pretty Fly (For White Guy)
TTITLE1=Original Prankster
TTITLE2=Huck It
TTITLE3=Something To Believe In
TTITLE4=Come Out And Play
TTITLE5=Have You Ever
TTITLE6=Staring At The Sun
TTITLE7=Cool To Hate
TTITLE8=Session
TTITLE9=Get It Right
TTITLE10=Dammit I Changed Again
TTITLE11=Conspiracy Of Love
TTITLE12=Why Don't You Get A Job
TTITLE13=The Kids Aren't Alright
TTITLE14=Me And My Old Lady
TTITLE15=All I Want
TTITLE16=It'll Be A Long Time
TTITLE17=What Happened To You
TTITLE18=We Are One
TTITLE19=Hypodermic
TTITLE20=No Hero
TTITLE21=The End Of The Live
TTITLE22=Burn It Up
TTITLE23=Come Out Swinging
EXTD=
EXTT0=
EXTT1=
EXTT2=
EXTT3=
EXTT4=
EXTT5=
EXTT6=
EXTT7=
EXTT8=
EXTT9=
EXTT10=
EXTT11=
EXTT12=
EXTT13=
EXTT14=
EXTT15=
EXTT16=
EXTT17=
EXTT18=
EXTT19=
EXTT20=
EXTT21=
EXTT22=
EXTT23=
PLAYORDER=
